<?xml version="1.0" encoding="UTF-8"?>
<svg id="Layer_2" data-name="Layer 2" xmlns="http://www.w3.org/2000/svg" viewBox="0 0 228.27 198.41">
  <defs>
    <style>
      .cls-1, .cls-2, .cls-3 {
        fill: none;
        stroke: #000;
        stroke-miterlimit: 10;
      }

      .cls-4 {
        fill: #fff;
      }

      .cls-2 {
        stroke-width: .78px;
      }

      .cls-3 {
        stroke-width: 1.01px;
      }
    </style>
  </defs>
  <g id="Layer_1-2" data-name="Layer 1">
    <g>
      <g>
        <g>
          <rect class="cls-4" x="114.83" y="6.73" width="59.27" height="190.78"/>
          <path d="M173.6,7.23v189.78h-58.27V7.23h58.27M174.6,6.23h-60.27v191.78h60.27V6.23h0Z"/>
        </g>
        <g>
          <rect class="cls-4" x="175.1" y="77.96" width="52.42" height="119.55"/>
          <path d="M227.02,78.46v118.55h-51.42v-118.55h51.42M228.02,77.46h-53.42v120.55h53.42v-120.55h0Z"/>
        </g>
        <g>
          <rect class="cls-4" x="12.09" y="38.24" width="101.74" height="159.27"/>
          <path d="M113.33,38.74v158.27H12.59V38.74h100.74M114.33,37.74H11.59v160.27h102.74V37.74h0Z"/>
        </g>
      </g>
      <g>
        <g>
          <rect class="cls-4" x="28.89" y="57.41" width="67.49" height="29.14"/>
          <path d="M95.88,57.91v28.14H29.39v-28.14h66.49M96.88,56.91H28.39v30.14h68.49v-30.14h0Z"/>
        </g>
        <g>
          <rect class="cls-4" x="28.89" y="94.4" width="67.49" height="29.14"/>
          <path d="M95.88,94.9v28.14H29.39v-28.14h66.49M96.88,93.9H28.39v30.14h68.49v-30.14h0Z"/>
        </g>
        <g>
          <rect class="cls-4" x="136.63" y="175.31" width="18.4" height="22.31"/>
          <path d="M154.65,175.7v21.53h-17.63v-21.53h17.63M155.42,174.93h-19.18v23.08h19.18v-23.08h0Z"/>
        </g>
        <g>
          <rect class="cls-4" x="29.12" y="175.66" width="67.03" height="21.62"/>
          <path d="M95.42,176.39v20.15H29.85v-20.15h65.56M96.88,174.93H28.39v23.08h68.49v-23.08h0Z"/>
        </g>
        <g>
          <rect class="cls-4" x="192.11" y="175.31" width="18.4" height="22.31"/>
          <path d="M210.13,175.7v21.53h-17.63v-21.53h17.63M210.9,174.93h-19.18v23.08h19.18v-23.08h0Z"/>
        </g>
        <g>
          <rect class="cls-4" x="181.67" y="102.62" width="5.85" height="5.85"/>
          <path d="M187.02,103.12v4.85h-4.85v-4.85h4.85M188.02,102.12h-6.85v6.85h6.85v-6.85h0Z"/>
        </g>
        <g>
          <rect class="cls-4" x="192.82" y="102.62" width="5.85" height="5.85"/>
          <path d="M198.16,103.12v4.85h-4.85v-4.85h4.85M199.16,102.12h-6.85v6.85h6.85v-6.85h0Z"/>
        </g>
        <g>
          <rect class="cls-4" x="203.96" y="102.62" width="5.85" height="5.85"/>
          <path d="M209.31,103.12v4.85h-4.85v-4.85h4.85M210.31,102.12h-6.85v6.85h6.85v-6.85h0Z"/>
        </g>
        <g>
          <rect class="cls-4" x="215.11" y="102.62" width="5.85" height="5.85"/>
          <path d="M220.45,103.12v4.85h-4.85v-4.85h4.85M221.45,102.12h-6.85v6.85h6.85v-6.85h0Z"/>
        </g>
        <g>
          <rect class="cls-4" x="181.67" y="90.15" width="5.85" height="5.85"/>
          <path d="M187.02,90.65v4.85h-4.85v-4.85h4.85M188.02,89.65h-6.85v6.85h6.85v-6.85h0Z"/>
        </g>
        <g>
          <rect class="cls-4" x="192.82" y="90.15" width="5.85" height="5.85"/>
          <path d="M198.16,90.65v4.85h-4.85v-4.85h4.85M199.16,89.65h-6.85v6.85h6.85v-6.85h0Z"/>
        </g>
        <g>
          <rect class="cls-4" x="203.96" y="90.15" width="5.85" height="5.85"/>
          <path d="M209.31,90.65v4.85h-4.85v-4.85h4.85M210.31,89.65h-6.85v6.85h6.85v-6.85h0Z"/>
        </g>
        <g>
          <rect class="cls-4" x="215.11" y="90.15" width="5.85" height="5.85"/>
          <path d="M220.45,90.65v4.85h-4.85v-4.85h4.85M221.45,89.65h-6.85v6.85h6.85v-6.85h0Z"/>
        </g>
        <g>
          <rect class="cls-4" x="181.67" y="127.55" width="5.85" height="5.85"/>
          <path d="M187.02,128.05v4.85h-4.85v-4.85h4.85M188.02,127.05h-6.85v6.85h6.85v-6.85h0Z"/>
        </g>
        <g>
          <rect class="cls-4" x="192.82" y="127.55" width="5.85" height="5.85"/>
          <path d="M198.16,128.05v4.85h-4.85v-4.85h4.85M199.16,127.05h-6.85v6.85h6.85v-6.85h0Z"/>
        </g>
        <g>
          <rect class="cls-4" x="203.96" y="127.55" width="5.85" height="5.85"/>
          <path d="M209.31,128.05v4.85h-4.85v-4.85h4.85M210.31,127.05h-6.85v6.85h6.85v-6.85h0Z"/>
        </g>
        <g>
          <rect class="cls-4" x="215.11" y="127.55" width="5.85" height="5.85"/>
          <path d="M220.45,128.05v4.85h-4.85v-4.85h4.85M221.45,127.05h-6.85v6.85h6.85v-6.85h0Z"/>
        </g>
        <g>
          <rect class="cls-4" x="181.67" y="115.08" width="5.85" height="5.85"/>
          <path d="M187.02,115.58v4.85h-4.85v-4.85h4.85M188.02,114.58h-6.85v6.85h6.85v-6.85h0Z"/>
        </g>
        <g>
          <rect class="cls-4" x="192.82" y="115.08" width="5.85" height="5.85"/>
          <path d="M198.16,115.58v4.85h-4.85v-4.85h4.85M199.16,114.58h-6.85v6.85h6.85v-6.85h0Z"/>
        </g>
        <g>
          <rect class="cls-4" x="203.96" y="115.08" width="5.85" height="5.85"/>
          <path d="M209.31,115.58v4.85h-4.85v-4.85h4.85M210.31,114.58h-6.85v6.85h6.85v-6.85h0Z"/>
        </g>
        <g>
          <rect class="cls-4" x="215.11" y="115.08" width="5.85" height="5.85"/>
          <path d="M220.45,115.58v4.85h-4.85v-4.85h4.85M221.45,114.58h-6.85v6.85h6.85v-6.85h0Z"/>
        </g>
        <g>
          <g>
            <rect class="cls-4" x="124.86" y="53.99" width="5.85" height="5.85"/>
            <path d="M130.21,54.49v4.85h-4.85v-4.85h4.85M131.21,53.49h-6.85v6.85h6.85v-6.85h0Z"/>
          </g>
          <g>
            <rect class="cls-4" x="136" y="53.99" width="5.85" height="5.85"/>
            <path d="M141.35,54.49v4.85h-4.85v-4.85h4.85M142.35,53.49h-6.85v6.85h6.85v-6.85h0Z"/>
          </g>
          <g>
            <rect class="cls-4" x="147.15" y="53.99" width="5.85" height="5.85"/>
            <path d="M152.5,54.49v4.85h-4.85v-4.85h4.85M153.5,53.49h-6.85v6.85h6.85v-6.85h0Z"/>
          </g>
          <g>
            <rect class="cls-4" x="158.29" y="53.99" width="5.85" height="5.85"/>
            <path d="M163.64,54.49v4.85h-4.85v-4.85h4.85M164.64,53.49h-6.85v6.85h6.85v-6.85h0Z"/>
          </g>
          <g>
            <rect class="cls-4" x="124.86" y="41.52" width="5.85" height="5.85"/>
            <path d="M130.21,42.02v4.85h-4.85v-4.85h4.85M131.21,41.02h-6.85v6.85h6.85v-6.85h0Z"/>
          </g>
          <g>
            <rect class="cls-4" x="136" y="41.52" width="5.85" height="5.85"/>
            <path d="M141.35,42.02v4.85h-4.85v-4.85h4.85M142.35,41.02h-6.85v6.85h6.85v-6.85h0Z"/>
          </g>
          <g>
            <rect class="cls-4" x="147.15" y="41.52" width="5.85" height="5.85"/>
            <path d="M152.5,42.02v4.85h-4.85v-4.85h4.85M153.5,41.02h-6.85v6.85h6.85v-6.85h0Z"/>
          </g>
          <g>
            <rect class="cls-4" x="158.29" y="41.52" width="5.85" height="5.85"/>
            <path d="M163.64,42.02v4.85h-4.85v-4.85h4.85M164.64,41.02h-6.85v6.85h6.85v-6.85h0Z"/>
          </g>
          <g>
            <rect class="cls-4" x="124.86" y="66.45" width="5.85" height="5.85"/>
            <path d="M130.21,66.95v4.85h-4.85v-4.85h4.85M131.21,65.95h-6.85v6.85h6.85v-6.85h0Z"/>
          </g>
          <g>
            <rect class="cls-4" x="136" y="66.45" width="5.85" height="5.85"/>
            <path d="M141.35,66.95v4.85h-4.85v-4.85h4.85M142.35,65.95h-6.85v6.85h6.85v-6.85h0Z"/>
          </g>
          <g>
            <rect class="cls-4" x="147.15" y="66.45" width="5.85" height="5.85"/>
            <path d="M152.5,66.95v4.85h-4.85v-4.85h4.85M153.5,65.95h-6.85v6.85h6.85v-6.85h0Z"/>
          </g>
          <g>
            <rect class="cls-4" x="158.29" y="66.45" width="5.85" height="5.85"/>
            <path d="M163.64,66.95v4.85h-4.85v-4.85h4.85M164.64,65.95h-6.85v6.85h6.85v-6.85h0Z"/>
          </g>
        </g>
        <g>
          <g>
            <rect class="cls-4" x="124.86" y="143.03" width="5.85" height="5.85"/>
            <path d="M130.21,143.53v4.85h-4.85v-4.85h4.85M131.21,142.53h-6.85v6.85h6.85v-6.85h0Z"/>
          </g>
          <g>
            <rect class="cls-4" x="136" y="143.03" width="5.85" height="5.85"/>
            <path d="M141.35,143.53v4.85h-4.85v-4.85h4.85M142.35,142.53h-6.85v6.85h6.85v-6.85h0Z"/>
          </g>
          <g>
            <rect class="cls-4" x="147.15" y="143.03" width="5.85" height="5.85"/>
            <path d="M152.5,143.53v4.85h-4.85v-4.85h4.85M153.5,142.53h-6.85v6.85h6.85v-6.85h0Z"/>
          </g>
          <g>
            <rect class="cls-4" x="158.29" y="143.03" width="5.85" height="5.85"/>
            <path d="M163.64,143.53v4.85h-4.85v-4.85h4.85M164.64,142.53h-6.85v6.85h6.85v-6.85h0Z"/>
          </g>
          <g>
            <rect class="cls-4" x="124.86" y="130.57" width="5.85" height="5.85"/>
            <path d="M130.21,131.07v4.85h-4.85v-4.85h4.85M131.21,130.07h-6.85v6.85h6.85v-6.85h0Z"/>
          </g>
          <g>
            <rect class="cls-4" x="136" y="130.57" width="5.85" height="5.85"/>
            <path d="M141.35,131.07v4.85h-4.85v-4.85h4.85M142.35,130.07h-6.85v6.85h6.85v-6.85h0Z"/>
          </g>
          <g>
            <rect class="cls-4" x="147.15" y="130.57" width="5.85" height="5.85"/>
            <path d="M152.5,131.07v4.85h-4.85v-4.85h4.85M153.5,130.07h-6.85v6.85h6.85v-6.85h0Z"/>
          </g>
          <g>
            <rect class="cls-4" x="158.29" y="130.57" width="5.85" height="5.85"/>
            <path d="M163.64,131.07v4.85h-4.85v-4.85h4.85M164.64,130.07h-6.85v6.85h6.85v-6.85h0Z"/>
          </g>
          <g>
            <rect class="cls-4" x="124.86" y="155.49" width="5.85" height="5.85"/>
            <path d="M130.21,155.99v4.85h-4.85v-4.85h4.85M131.21,154.99h-6.85v6.85h6.85v-6.85h0Z"/>
          </g>
          <g>
            <rect class="cls-4" x="136" y="155.49" width="5.85" height="5.85"/>
            <path d="M141.35,155.99v4.85h-4.85v-4.85h4.85M142.35,154.99h-6.85v6.85h6.85v-6.85h0Z"/>
          </g>
          <g>
            <rect class="cls-4" x="147.15" y="155.49" width="5.85" height="5.85"/>
            <path d="M152.5,155.99v4.85h-4.85v-4.85h4.85M153.5,154.99h-6.85v6.85h6.85v-6.85h0Z"/>
          </g>
          <g>
            <rect class="cls-4" x="158.29" y="155.49" width="5.85" height="5.85"/>
            <path d="M163.64,155.99v4.85h-4.85v-4.85h4.85M164.64,154.99h-6.85v6.85h6.85v-6.85h0Z"/>
          </g>
        </g>
        <g>
          <rect class="cls-4" x="181.67" y="150.5" width="5.85" height="5.85"/>
          <path d="M187.02,151v4.85h-4.85v-4.85h4.85M188.02,150h-6.85v6.85h6.85v-6.85h0Z"/>
        </g>
        <g>
          <rect class="cls-4" x="192.82" y="150.5" width="5.85" height="5.85"/>
          <path d="M198.16,151v4.85h-4.85v-4.85h4.85M199.16,150h-6.85v6.85h6.85v-6.85h0Z"/>
        </g>
        <g>
          <rect class="cls-4" x="203.96" y="150.5" width="5.85" height="5.85"/>
          <path d="M209.31,151v4.85h-4.85v-4.85h4.85M210.31,150h-6.85v6.85h6.85v-6.85h0Z"/>
        </g>
        <g>
          <rect class="cls-4" x="215.11" y="150.5" width="5.85" height="5.85"/>
          <path d="M220.45,151v4.85h-4.85v-4.85h4.85M221.45,150h-6.85v6.85h6.85v-6.85h0Z"/>
        </g>
        <g>
          <rect class="cls-4" x="181.67" y="138.03" width="5.85" height="5.85"/>
          <path d="M187.02,138.53v4.85h-4.85v-4.85h4.85M188.02,137.53h-6.85v6.85h6.85v-6.85h0Z"/>
        </g>
        <g>
          <rect class="cls-4" x="192.82" y="138.03" width="5.85" height="5.85"/>
          <path d="M198.16,138.53v4.85h-4.85v-4.85h4.85M199.16,137.53h-6.85v6.85h6.85v-6.85h0Z"/>
        </g>
        <g>
          <rect class="cls-4" x="203.96" y="138.03" width="5.85" height="5.85"/>
          <path d="M209.31,138.53v4.85h-4.85v-4.85h4.85M210.31,137.53h-6.85v6.85h6.85v-6.85h0Z"/>
        </g>
        <g>
          <rect class="cls-4" x="215.11" y="138.03" width="5.85" height="5.85"/>
          <path d="M220.45,138.53v4.85h-4.85v-4.85h4.85M221.45,137.53h-6.85v6.85h6.85v-6.85h0Z"/>
        </g>
        <g>
          <rect class="cls-4" x="181.67" y="175.43" width="5.85" height="5.85"/>
          <path d="M187.02,175.93v4.85h-4.85v-4.85h4.85M188.02,174.93h-6.85v6.85h6.85v-6.85h0Z"/>
        </g>
        <g>
          <rect class="cls-4" x="215.11" y="175.43" width="5.85" height="5.85"/>
          <path d="M220.45,175.93v4.85h-4.85v-4.85h4.85M221.45,174.93h-6.85v6.85h6.85v-6.85h0Z"/>
        </g>
        <g>
          <rect class="cls-4" x="181.67" y="162.96" width="5.85" height="5.85"/>
          <path d="M187.02,163.46v4.85h-4.85v-4.85h4.85M188.02,162.46h-6.85v6.85h6.85v-6.85h0Z"/>
        </g>
        <g>
          <rect class="cls-4" x="192.82" y="162.96" width="5.85" height="5.85"/>
          <path d="M198.16,163.46v4.85h-4.85v-4.85h4.85M199.16,162.46h-6.85v6.85h6.85v-6.85h0Z"/>
        </g>
        <g>
          <rect class="cls-4" x="203.96" y="162.96" width="5.85" height="5.85"/>
          <path d="M209.31,163.46v4.85h-4.85v-4.85h4.85M210.31,162.46h-6.85v6.85h6.85v-6.85h0Z"/>
        </g>
        <g>
          <rect class="cls-4" x="215.11" y="162.96" width="5.85" height="5.85"/>
          <path d="M220.45,163.46v4.85h-4.85v-4.85h4.85M221.45,162.46h-6.85v6.85h6.85v-6.85h0Z"/>
        </g>
        <line class="cls-2" x1="118.88" y1="14.05" x2="118.88" y2="174.93"/>
        <line class="cls-2" x1="170.12" y1="14.05" x2="170.12" y2="174.93"/>
        <line class="cls-1" x1="105.33" y1="56.91" x2="105.33" y2="174.93"/>
        <line class="cls-1" x1="19.94" y1="56.91" x2="19.94" y2="174.93"/>
        <g>
          <rect class="cls-4" x="28.89" y="133.99" width="27.35" height="27.35"/>
          <path d="M55.74,134.49v26.35h-26.35v-26.35h26.35M56.74,133.49h-28.35v28.35h28.35v-28.35h0Z"/>
        </g>
        <g>
          <rect class="cls-4" x="67.36" y="133.99" width="27.35" height="27.35"/>
          <path d="M94.22,134.49v26.35h-26.35v-26.35h26.35M95.22,133.49h-28.35v28.35h28.35v-28.35h0Z"/>
        </g>
        <g>
          <rect class="cls-4" x="124.86" y="106.05" width="38.88" height="19.44"/>
          <path d="M163.24,106.55v18.44h-37.88v-18.44h37.88M164.25,105.54h-39.89v20.45h39.89v-20.45h0Z"/>
        </g>
        <g>
          <rect class="cls-4" x="124.86" y="79.93" width="38.88" height="19.44"/>
          <path d="M163.24,80.44v18.44h-37.88v-18.44h37.88M164.25,79.43h-39.89v20.45h39.89v-20.45h0Z"/>
        </g>
        <line class="cls-1" x1="11.59" y1="37.74" x2=".5" y2="34.07"/>
        <line class="cls-1" x1="11.59" y1="198.01" x2=".5" y2="189.56"/>
        <line class="cls-1" x1=".5" y1="34.07" x2=".5" y2="189.56"/>
        <line class="cls-1" x1=".5" y1="34.07" x2="105.33" y2="34.07"/>
        <line class="cls-1" x1="114.33" y1="37.74" x2="105.33" y2="34.07"/>
        <line class="cls-1" x1="114.33" y1="6.23" x2="105.33" y2=".5"/>
        <line class="cls-1" x1="105.33" y1="34.07" x2="105.33" y2=".5"/>
        <line class="cls-1" x1="228.02" y1="77.46" x2="218.03" y2="71.98"/>
        <line class="cls-1" x1="174.6" y1="71.98" x2="218.03" y2="71.98"/>
        <line class="cls-3" x1="105.33" y1=".5" x2="164.64" y2=".5"/>
        <line class="cls-3" x1="174.6" y1="6.23" x2="164.64" y2=".5"/>
        <line class="cls-3" x1="81.04" y1="198.01" x2="81.04" y2="174.93"/>
        <line class="cls-3" x1="46.31" y1="198.01" x2="46.31" y2="174.93"/>
      </g>
    </g>
  </g>
</svg>